<svg id="svg" version="1.1" xmlns="http://www.w3.org/2000/svg" xmlns:xlink="http://www.w3.org/1999/xlink" width="400" height="220.3599550056243" viewBox="0, 0, 400,220.3599550056243"><g id="svgg"><path id="path0" d="M64.667 57.188 C 53.900 58.653,46.740 68.119,50.500 75.917 C 51.880 78.780,53.664 80.341,61.917 85.903 C 68.829 90.562,71.362 92.946,72.331 95.702 C 74.105 100.749,71.941 105.988,67.333 107.801 C 59.702 110.803,51.852 104.828,51.056 95.411 L 50.951 94.167 49.559 94.167 L 48.167 94.167 48.167 101.405 L 48.167 108.643 49.042 108.970 C 59.415 112.850,68.117 111.528,74.595 105.087 C 78.134 101.567,79.720 97.544,79.166 93.493 C 78.622 89.524,76.659 87.109,70.555 82.907 C 58.534 74.629,56.563 72.744,55.727 68.724 C 54.124 61.008,63.958 56.611,70.060 62.316 C 72.125 64.246,74.000 68.382,74.000 71.006 L 74.000 71.667 75.500 71.667 L 77.000 71.667 77.000 65.413 L 77.000 59.158 76.542 58.978 C 75.969 58.753,73.005 57.884,72.000 57.648 C 69.449 57.047,66.886 56.887,64.667 57.188 M277.750 57.251 C 266.522 58.691,256.167 67.571,252.971 78.500 C 247.160 98.371,263.508 115.388,283.500 110.277 C 302.888 105.320,312.633 81.983,301.537 67.083 C 295.941 59.568,287.356 56.019,277.750 57.251 M337.667 57.250 C 325.256 59.124,318.570 70.977,325.600 78.642 C 326.854 80.008,329.523 82.045,334.250 85.243 C 343.954 91.807,345.885 93.977,346.118 98.583 C 346.668 109.408,332.941 112.392,326.720 102.802 C 325.263 100.556,324.333 97.565,324.333 95.125 L 324.333 94.167 322.915 94.167 L 321.496 94.167 321.540 101.443 L 321.583 108.719 322.750 109.118 C 330.989 111.931,336.995 111.862,342.667 108.886 C 349.532 105.285,353.334 99.060,352.370 93.000 C 351.762 89.175,349.613 86.828,341.917 81.580 C 332.498 75.158,330.009 72.759,329.098 69.226 C 327.369 62.527,334.310 57.518,340.940 60.679 C 344.206 62.235,346.492 65.728,347.180 70.212 L 347.403 71.667 348.785 71.667 L 350.167 71.667 350.167 65.360 L 350.167 59.053 348.458 58.531 C 343.829 57.117,340.873 56.766,337.667 57.250 M88.167 59.076 C 88.167 59.973,88.174 59.986,88.708 60.069 C 90.950 60.415,91.462 60.533,92.066 60.845 C 93.355 61.512,93.819 62.267,94.157 64.250 C 94.452 65.979,94.323 103.753,94.019 104.882 C 93.479 106.885,91.486 108.136,88.792 108.161 L 88.167 108.167 88.167 109.083 L 88.167 110.000 98.000 110.000 L 107.833 110.000 107.833 109.117 L 107.833 108.235 106.660 108.033 C 105.199 107.783,104.074 107.224,103.295 106.361 C 101.806 104.713,101.837 104.994,101.835 93.125 L 101.833 82.833 114.172 82.833 L 126.511 82.833 126.464 93.708 C 126.412 105.565,126.444 105.158,125.454 106.519 C 124.827 107.381,122.709 108.156,120.958 108.164 L 120.333 108.167 120.333 109.083 L 120.333 110.000 130.250 110.000 L 140.167 110.000 140.167 109.120 L 140.167 108.240 138.694 108.040 C 135.787 107.644,134.743 106.797,134.228 104.417 C 133.913 102.959,133.912 65.379,134.227 63.917 C 134.749 61.497,135.782 60.578,138.337 60.262 C 140.259 60.024,140.167 60.084,140.167 59.070 L 140.167 58.167 130.250 58.167 L 120.333 58.167 120.333 59.083 C 120.333 59.587,120.390 60.001,120.458 60.003 C 122.205 60.049,124.366 60.713,125.188 61.456 C 126.454 62.599,126.500 62.982,126.500 72.351 L 126.500 80.500 114.167 80.500 L 101.833 80.500 101.833 72.328 C 101.833 61.480,102.087 60.745,106.000 60.262 C 107.925 60.025,107.833 60.084,107.833 59.070 L 107.833 58.167 98.000 58.167 L 88.167 58.167 88.167 59.076 M148.333 59.072 C 148.333 60.047,148.307 60.020,149.500 60.258 C 152.624 60.880,154.108 63.077,161.848 78.547 L 167.667 90.177 167.667 96.243 C 167.667 106.516,167.290 107.451,162.908 108.049 L 161.500 108.241 161.500 109.120 L 161.500 110.000 171.333 110.000 L 181.167 110.000 181.167 109.120 L 181.167 108.239 179.958 108.016 C 177.598 107.581,176.251 106.564,175.500 104.647 C 175.084 103.585,175.083 103.575,175.030 96.891 L 174.977 90.199 176.681 87.308 C 177.618 85.718,178.646 83.967,178.966 83.417 C 179.286 82.867,180.013 81.629,180.582 80.667 C 181.151 79.704,182.144 78.017,182.788 76.917 C 190.991 62.904,192.550 60.913,195.833 60.258 C 197.027 60.020,197.000 60.047,197.000 59.072 L 197.000 58.167 187.333 58.167 L 177.667 58.167 177.667 59.083 C 177.667 59.587,177.725 60.000,177.796 60.000 C 179.426 60.000,181.872 60.587,182.775 61.194 C 186.067 63.409,183.906 71.686,177.084 83.000 C 176.283 84.329,175.392 85.809,175.105 86.288 C 174.818 86.768,174.530 87.162,174.464 87.163 C 174.398 87.165,173.246 84.973,171.902 82.292 C 170.559 79.610,167.665 73.873,165.470 69.541 C 160.992 60.706,161.037 60.837,162.292 60.254 C 162.994 59.928,163.000 59.918,163.000 59.046 L 163.000 58.167 155.667 58.167 L 148.333 58.167 148.333 59.072 M201.833 59.064 C 201.833 60.098,201.663 59.991,203.743 60.258 C 205.791 60.521,206.906 61.280,207.548 62.849 L 207.917 63.750 207.964 83.333 C 207.994 95.689,207.950 103.311,207.846 103.984 C 207.423 106.719,206.126 107.816,202.967 108.109 L 201.833 108.215 201.833 109.107 L 201.833 110.000 211.750 110.000 L 221.667 110.000 221.667 109.117 L 221.667 108.235 220.475 108.030 C 217.877 107.585,216.319 106.270,215.748 104.043 C 215.536 103.214,215.504 101.439,215.540 92.342 L 215.583 81.618 217.601 84.767 C 218.711 86.499,220.631 89.492,221.868 91.417 C 224.731 95.874,226.859 99.188,229.675 103.575 C 232.144 107.420,233.193 108.685,234.528 109.425 L 235.417 109.917 240.958 109.967 L 246.500 110.017 246.500 109.118 L 246.500 108.220 245.542 108.007 C 242.451 107.319,239.090 104.288,235.648 99.083 C 235.042 98.166,233.363 95.579,231.916 93.333 C 230.469 91.087,228.749 88.425,228.094 87.417 C 227.438 86.408,226.732 85.306,226.525 84.966 L 226.149 84.349 226.783 84.021 C 234.142 80.218,238.879 73.665,238.906 67.250 C 238.924 62.951,237.623 60.763,234.190 59.321 C 231.670 58.262,232.151 58.291,216.292 58.214 L 201.833 58.144 201.833 59.064 M223.189 60.240 C 227.889 61.236,230.748 65.997,230.749 72.833 C 230.752 82.230,225.115 85.204,217.003 80.085 L 215.500 79.137 215.500 70.609 L 215.500 62.080 215.856 61.858 C 218.344 60.304,220.865 59.748,223.189 60.240 M277.885 60.838 C 288.882 62.414,296.522 70.634,299.025 83.583 C 299.421 85.634,299.328 92.084,298.877 93.868 C 294.586 110.826,273.657 112.395,263.108 96.549 C 258.183 89.151,257.114 77.353,260.708 70.060 C 263.848 63.688,270.994 59.851,277.885 60.838 " stroke="none" fill="#1c244c" fill-rule="evenodd"></path><path id="path1" d="M0.000 110.167 L 0.000 220.333 200.000 220.333 L 400.000 220.333 400.000 110.167 L 400.000 0.000 200.000 0.000 L 0.000 0.000 0.000 110.167 M311.968 44.037 C 316.467 46.123,317.740 54.516,314.331 59.617 C 313.032 61.561,312.896 61.606,313.433 59.914 C 314.498 56.559,314.295 53.773,312.877 52.292 C 312.347 51.738,312.263 51.733,311.323 52.202 C 308.275 53.719,304.574 51.592,304.596 48.335 C 304.623 44.475,308.296 42.334,311.968 44.037 M72.000 57.561 C 72.962 57.789,74.462 58.197,75.333 58.468 L 76.917 58.960 76.960 65.396 L 77.004 71.833 75.523 71.833 L 74.042 71.833 73.938 71.313 C 73.880 71.026,73.832 70.595,73.831 70.354 C 73.812 67.169,70.775 62.307,67.903 60.866 C 61.286 57.544,54.187 62.493,55.929 69.214 C 56.815 72.633,59.396 75.164,67.899 80.950 C 77.586 87.541,79.254 89.607,79.243 95.000 C 79.233 99.803,77.037 103.656,72.301 107.178 C 66.219 111.701,59.542 112.431,50.542 109.557 L 48.167 108.799 48.167 101.399 L 48.167 94.000 49.667 94.000 L 51.167 94.000 51.167 95.042 C 51.167 99.114,53.370 103.675,56.500 106.083 C 63.374 111.373,72.846 107.423,72.831 99.273 C 72.822 94.248,70.924 92.086,60.083 84.750 C 55.176 81.429,52.841 79.584,51.748 78.164 C 43.732 67.747,57.194 54.051,72.000 57.561 M287.173 57.560 C 296.488 59.585,303.810 66.971,305.785 76.333 C 306.253 78.557,306.208 85.147,305.708 87.376 C 302.096 103.499,285.559 114.302,270.189 110.581 C 257.506 107.510,249.317 94.256,252.170 81.417 C 253.570 75.115,255.448 71.540,260.081 66.354 C 264.432 61.483,271.126 58.040,278.083 57.095 C 279.734 56.871,285.316 57.156,287.173 57.560 M344.167 57.299 C 344.488 57.384,345.162 57.546,345.667 57.657 C 346.171 57.769,347.427 58.121,348.458 58.439 L 350.333 59.017 350.333 65.431 L 350.333 71.846 348.792 71.798 L 347.250 71.750 347.201 71.083 C 346.909 67.113,344.799 63.211,341.932 61.343 C 336.269 57.654,328.997 60.909,329.001 67.131 C 329.004 71.499,331.182 74.074,340.000 80.134 C 346.046 84.289,347.923 85.724,349.692 87.542 C 355.045 93.045,352.861 102.306,344.950 107.644 C 338.801 111.794,332.150 112.359,323.537 109.463 L 321.417 108.750 321.417 101.417 L 321.417 94.083 322.852 94.036 L 324.288 93.988 324.392 94.619 C 324.449 94.966,324.497 95.550,324.498 95.917 C 324.509 99.884,327.758 105.252,331.280 107.123 C 338.904 111.173,347.425 105.640,345.991 97.572 C 345.300 93.685,342.995 91.225,335.136 85.984 C 327.004 80.563,324.891 78.679,323.497 75.604 C 320.040 67.980,327.464 58.400,337.833 57.104 C 338.784 56.985,343.535 57.132,344.167 57.299 M108.000 59.143 L 108.000 60.118 106.958 60.220 C 102.102 60.693,101.847 61.327,101.839 72.958 L 101.833 80.333 114.178 80.333 L 126.522 80.333 126.466 72.125 C 126.390 61.194,126.276 60.902,121.816 60.295 L 120.333 60.093 120.333 59.130 L 120.333 58.167 130.342 58.167 L 140.350 58.167 140.300 59.117 L 140.250 60.067 138.750 60.281 C 135.872 60.694,134.983 61.367,134.393 63.583 C 134.057 64.842,134.066 103.525,134.402 104.787 C 134.969 106.914,136.148 107.732,139.000 107.976 L 140.250 108.083 140.250 109.083 L 140.250 110.083 130.292 110.126 L 120.333 110.169 120.333 109.107 L 120.333 108.044 121.542 107.955 C 124.100 107.766,125.293 107.038,126.025 105.219 L 126.414 104.250 126.466 93.625 L 126.518 83.000 114.168 83.000 L 101.817 83.000 101.867 93.375 C 101.917 103.749,101.917 103.750,102.299 104.696 C 103.094 106.663,105.135 107.991,107.375 107.998 L 108.000 108.000 108.000 109.085 L 108.000 110.169 98.042 110.126 L 88.083 110.083 88.083 109.083 L 88.083 108.083 89.250 107.988 C 91.914 107.770,93.076 107.042,93.809 105.131 C 94.162 104.213,94.331 65.468,93.990 63.812 C 93.508 61.476,92.198 60.509,89.128 60.224 L 88.000 60.119 88.000 59.143 L 88.000 58.167 98.000 58.167 L 108.000 58.167 108.000 59.143 M163.167 59.167 C 163.167 60.127,163.150 60.167,162.742 60.167 C 162.272 60.167,161.500 60.838,161.500 61.248 C 161.500 61.392,163.026 64.527,164.892 68.213 C 166.758 71.900,169.655 77.634,171.331 80.954 C 173.008 84.275,174.440 86.954,174.514 86.908 C 174.829 86.713,178.193 81.053,179.709 78.167 C 186.104 65.992,185.677 60.232,178.375 60.172 L 177.667 60.167 177.667 59.167 L 177.667 58.167 187.417 58.167 L 197.167 58.167 197.167 59.145 L 197.167 60.124 196.354 60.232 C 192.987 60.678,190.515 63.669,183.666 75.583 C 183.508 75.858,182.871 76.946,182.250 78.000 C 181.630 79.054,180.620 80.779,180.006 81.833 C 179.391 82.887,178.226 84.875,177.415 86.250 C 176.604 87.625,175.768 89.050,175.556 89.417 C 175.120 90.171,174.946 101.956,175.343 103.808 C 175.854 106.191,177.600 107.626,180.417 107.979 L 181.250 108.083 181.250 109.083 L 181.250 110.083 171.333 110.083 L 161.417 110.083 161.367 109.042 L 161.317 108.000 162.151 108.000 C 163.966 108.000,165.622 107.414,166.392 106.499 C 167.341 105.371,167.396 104.894,167.461 97.212 L 167.520 90.175 161.769 78.629 C 153.886 62.802,152.478 60.766,149.042 60.234 L 148.333 60.124 148.333 59.145 L 148.333 58.167 155.750 58.167 L 163.167 58.167 163.167 59.167 M231.250 58.410 C 236.324 59.335,238.743 61.751,239.092 66.243 C 239.578 72.484,235.832 78.315,228.167 83.253 C 227.204 83.873,226.390 84.402,226.358 84.429 C 226.326 84.456,227.409 86.190,228.765 88.281 C 230.122 90.372,231.976 93.246,232.886 94.667 C 236.856 100.867,238.374 102.897,240.578 104.954 C 242.543 106.788,244.744 108.000,246.109 108.000 C 246.479 108.000,246.500 108.058,246.500 109.094 L 246.500 110.188 241.125 110.135 L 235.750 110.083 234.697 109.597 C 233.266 108.937,232.256 107.780,229.962 104.174 C 228.939 102.566,227.273 99.968,226.259 98.402 C 225.246 96.835,223.254 93.743,221.833 91.531 C 220.412 89.318,218.408 86.212,217.378 84.629 L 215.506 81.750 215.506 92.167 C 215.505 103.243,215.538 103.774,216.326 105.318 C 217.050 106.737,219.062 107.886,221.083 108.034 L 221.750 108.083 221.750 109.083 L 221.750 110.083 211.792 110.126 L 201.833 110.169 201.833 109.085 L 201.833 108.000 202.708 107.994 C 205.960 107.972,207.382 106.725,207.812 103.515 C 208.064 101.634,208.076 66.587,207.825 64.720 C 207.410 61.641,206.475 60.725,203.306 60.294 L 201.833 60.093 201.833 59.130 L 201.833 58.167 215.875 58.167 C 227.455 58.167,230.150 58.210,231.250 58.410 M219.196 60.505 C 218.086 60.796,216.229 61.611,215.708 62.037 C 215.547 62.169,215.500 64.089,215.500 70.607 L 215.500 79.007 216.786 79.846 C 223.371 84.145,228.805 82.938,230.351 76.833 C 230.746 75.273,230.649 69.752,230.196 68.083 C 228.593 62.162,224.261 59.178,219.196 60.505 M272.725 61.087 C 261.957 63.058,256.576 73.709,259.438 87.385 C 263.161 105.175,283.508 113.845,294.315 102.247 C 300.753 95.339,301.008 82.711,294.916 72.417 C 290.165 64.388,280.804 59.609,272.725 61.087 M250.959 111.434 C 251.929 111.748,253.768 112.693,254.625 113.319 L 255.334 113.836 253.195 115.960 C 252.019 117.128,250.607 118.592,250.058 119.215 C 248.942 120.479,248.713 120.518,248.222 119.529 C 247.481 118.034,247.788 114.299,248.857 111.814 C 249.239 110.927,249.338 110.909,250.959 111.434 M346.553 119.983 C 348.060 121.028,351.100 124.420,351.755 125.788 C 352.467 127.276,350.444 133.167,349.221 133.167 C 348.895 133.167,348.950 132.625,349.417 131.234 C 350.312 128.566,349.686 126.795,347.846 126.795 C 344.780 126.795,343.090 130.502,342.760 137.952 C 342.628 140.931,342.552 140.833,344.996 140.833 C 347.558 140.833,347.664 141.081,345.375 141.720 C 342.821 142.432,342.936 142.259,342.815 145.601 C 342.566 152.504,340.041 156.281,334.863 157.497 C 331.499 158.288,327.759 155.398,328.054 152.237 C 328.583 146.571,334.273 141.167,339.710 141.167 L 340.210 141.167 340.094 139.792 C 340.030 139.035,339.790 137.517,339.560 136.417 C 339.330 135.317,338.962 133.554,338.741 132.500 C 337.610 127.092,339.597 122.530,344.186 120.001 C 345.310 119.381,345.681 119.378,346.553 119.983 M310.374 122.088 C 311.367 122.817,312.152 123.867,313.015 125.618 L 313.689 126.987 313.040 128.372 C 312.682 129.134,311.563 131.256,310.553 133.087 C 307.793 138.087,307.557 138.553,306.927 140.234 C 306.293 141.926,305.461 144.683,305.555 144.777 C 305.693 144.915,307.378 143.025,309.886 139.917 C 320.291 127.020,325.480 123.439,328.550 127.037 C 329.502 128.152,329.522 128.291,328.840 129.000 C 325.914 132.041,322.158 141.141,321.892 145.833 C 321.698 149.262,322.574 150.230,325.078 149.350 C 325.624 149.157,326.084 149.000,326.100 149.000 C 326.426 149.000,326.200 149.751,325.777 150.072 C 322.064 152.890,318.310 152.456,316.990 149.055 C 316.211 147.047,316.601 142.985,317.944 139.108 C 318.478 137.567,319.499 134.290,319.499 134.114 C 319.500 134.039,319.331 134.027,319.125 134.088 C 316.103 134.980,310.278 141.208,304.553 149.670 C 301.854 153.659,301.253 154.391,300.851 154.176 C 299.824 153.627,298.744 150.728,298.903 148.949 C 299.498 142.278,303.973 129.803,308.107 123.292 C 309.394 121.264,309.311 121.308,310.374 122.088 M268.195 122.893 C 268.609 123.136,269.419 123.825,269.993 124.423 L 271.038 125.511 270.924 126.797 C 270.243 134.497,265.630 139.778,256.234 143.613 L 255.385 143.960 255.288 145.022 C 255.113 146.924,255.495 149.163,256.182 150.276 C 257.966 153.162,263.994 150.555,268.712 144.857 C 269.084 144.408,269.220 144.337,269.411 144.495 C 270.273 145.210,263.514 151.608,260.410 153.015 C 255.560 155.214,250.333 150.650,250.333 144.215 C 250.333 132.940,261.860 119.180,268.195 122.893 M247.869 123.165 C 248.353 123.348,248.963 123.669,249.223 123.878 L 249.697 124.259 248.367 126.921 C 246.391 130.877,246.181 131.500,243.813 140.417 C 243.461 141.742,242.551 144.911,239.911 154.000 C 234.815 171.549,231.310 176.159,224.257 174.590 C 222.204 174.133,219.000 172.259,219.000 171.514 C 219.000 170.876,219.216 170.850,219.869 171.409 C 222.173 173.381,226.011 173.323,228.008 171.286 C 230.054 169.198,232.739 162.564,234.502 155.235 C 241.667 125.456,243.334 121.457,247.869 123.165 M288.795 123.914 C 290.488 125.187,292.045 127.500,291.208 127.500 C 289.337 127.501,284.642 131.558,282.106 135.367 C 277.402 142.430,276.001 151.340,279.893 149.435 C 283.043 147.894,289.252 138.129,293.964 127.306 L 294.302 126.528 294.997 126.685 C 295.709 126.845,296.993 127.457,297.577 127.915 C 297.948 128.206,298.005 127.997,296.663 131.250 C 293.011 140.101,291.654 148.366,293.375 151.283 L 293.701 151.836 293.059 152.109 C 288.155 154.191,286.708 149.447,289.342 139.928 C 289.760 138.420,289.704 138.423,288.836 139.962 C 282.709 150.821,278.277 154.555,275.230 151.428 C 270.809 146.890,274.612 133.170,282.279 125.998 C 285.201 123.264,287.115 122.652,288.795 123.914 M265.978 127.484 C 261.992 129.043,258.514 133.421,256.500 139.416 C 255.320 142.929,255.624 143.061,259.250 140.607 C 264.241 137.230,267.833 131.870,267.833 127.803 C 267.833 127.043,267.328 126.956,265.978 127.484 M339.137 143.821 C 335.623 145.195,331.333 150.320,331.333 153.144 C 331.333 153.921,331.913 155.082,332.514 155.510 L 332.998 155.855 333.874 155.387 C 337.211 153.602,340.333 148.293,340.333 144.406 C 340.333 143.381,340.301 143.365,339.137 143.821 " stroke="none" fill="#fbfbfb" fill-rule="evenodd"></path><path id="path2" d="M307.871 43.735 C 304.070 44.975,303.482 50.629,307.000 52.108 C 308.610 52.784,310.308 52.730,311.612 51.961 C 313.559 50.812,314.869 55.786,313.618 59.576 C 313.090 61.174,313.121 61.252,313.876 60.216 C 319.078 53.079,314.844 41.460,307.871 43.735 M248.986 111.603 C 247.580 115.165,247.445 119.192,248.702 120.073 C 249.048 120.315,249.093 120.295,249.564 119.706 C 249.837 119.363,251.225 117.903,252.647 116.460 C 255.585 113.479,255.491 113.887,253.512 112.717 C 251.030 111.250,249.293 110.823,248.986 111.603 M344.122 120.111 C 341.413 121.556,339.242 124.488,338.585 127.588 C 338.177 129.515,338.200 129.730,339.412 135.333 C 339.740 136.846,340.054 138.772,340.111 139.613 L 340.215 141.142 339.566 141.243 C 333.022 142.252,328.861 146.256,328.082 152.290 C 327.771 154.699,331.142 157.869,333.732 157.604 C 339.281 157.035,342.698 152.577,342.691 145.917 C 342.687 142.374,342.693 142.364,345.375 141.664 C 347.290 141.164,347.215 141.000,345.072 141.000 C 342.605 141.000,342.666 141.056,342.668 138.786 C 342.674 131.506,344.714 126.691,347.800 126.670 C 349.723 126.658,350.372 128.528,349.435 131.385 C 348.921 132.955,348.983 133.433,349.630 132.882 C 350.972 131.736,352.288 127.055,351.631 125.759 C 350.575 123.673,346.492 119.488,345.529 119.505 C 345.376 119.507,344.743 119.780,344.122 120.111 M308.173 123.292 C 303.988 129.880,299.087 143.749,298.942 149.417 C 298.900 151.062,300.192 153.971,301.037 154.134 C 301.352 154.195,301.866 153.528,304.426 149.740 C 310.328 141.008,316.955 134.000,319.310 134.000 C 319.511 134.000,319.628 134.087,319.590 134.208 C 319.553 134.323,319.101 135.722,318.585 137.317 C 316.436 143.964,316.108 146.919,317.241 149.432 C 318.331 151.849,321.444 152.650,323.954 151.159 C 326.442 149.681,327.101 148.734,325.167 149.417 C 322.748 150.270,321.713 149.329,321.776 146.333 C 321.872 141.760,325.638 132.388,328.727 129.037 C 329.498 128.201,329.462 128.041,328.212 126.774 C 325.185 123.703,320.140 127.341,309.956 139.938 C 306.054 144.764,305.345 145.459,305.574 144.239 C 306.043 141.742,307.454 138.515,310.372 133.265 C 312.318 129.766,313.500 127.394,313.500 126.990 C 313.500 125.775,310.441 121.667,309.536 121.667 C 309.299 121.667,308.913 122.127,308.173 123.292 M264.720 122.562 C 255.593 124.867,247.454 140.975,251.377 148.969 C 252.782 151.832,256.632 154.126,258.968 153.492 C 261.465 152.814,265.147 150.092,267.768 146.985 C 270.371 143.899,270.034 143.682,267.128 146.573 C 260.039 153.627,255.155 153.227,255.169 145.594 C 255.172 143.933,255.119 144.009,256.833 143.260 C 266.181 139.181,270.074 134.560,270.906 126.557 L 271.013 125.530 269.882 124.383 C 268.110 122.587,266.654 122.074,264.720 122.562 M245.551 123.100 C 244.051 123.605,242.401 126.325,240.912 130.750 C 240.120 133.103,239.202 136.562,236.833 146.119 C 232.415 163.950,230.556 169.162,227.729 171.651 C 225.671 173.461,221.871 173.362,219.868 171.446 C 219.350 170.950,219.016 170.980,219.003 171.522 C 218.992 171.967,221.290 173.540,222.757 174.092 C 229.133 176.492,233.375 173.131,237.091 162.733 C 238.282 159.402,238.039 160.176,239.888 153.833 C 242.655 144.342,243.286 142.137,243.917 139.750 C 246.011 131.828,246.407 130.677,248.394 126.750 C 249.807 123.959,249.778 124.233,248.723 123.637 C 247.629 123.019,246.406 122.812,245.551 123.100 M286.802 123.325 C 282.975 124.069,277.401 130.840,274.858 137.833 C 272.561 144.148,272.973 149.935,275.862 151.937 C 278.799 153.972,282.975 150.081,288.816 139.865 C 289.887 137.992,289.909 137.997,289.397 140.000 C 286.828 150.052,288.079 154.006,293.201 152.022 L 293.651 151.847 293.252 151.132 C 291.559 148.097,292.893 140.375,296.749 130.888 C 297.699 128.550,297.790 128.229,297.573 127.988 C 297.234 127.614,295.709 126.888,294.972 126.749 L 294.361 126.635 293.399 128.692 C 291.204 133.387,288.001 139.407,285.960 142.678 C 281.505 149.817,277.599 151.975,277.650 147.269 C 277.727 140.212,284.526 129.831,290.500 127.653 L 291.497 127.290 291.123 126.617 C 290.438 125.382,288.021 123.085,287.513 123.186 C 287.460 123.196,287.140 123.259,286.802 123.325 M267.829 127.245 C 268.462 128.008,267.142 132.105,265.438 134.667 C 263.042 138.270,256.215 143.466,255.761 142.034 C 255.658 141.709,256.501 139.002,257.330 137.000 C 259.333 132.159,263.646 127.674,266.833 127.118 C 267.571 126.990,267.623 126.996,267.829 127.245 M340.333 144.640 C 340.333 148.367,337.708 152.972,334.345 155.146 C 332.914 156.071,332.090 155.820,331.510 154.281 C 330.606 151.883,333.441 147.256,337.372 144.714 C 339.805 143.140,340.333 143.127,340.333 144.640 " stroke="none" fill="#bc1d2d" fill-rule="evenodd"></path><path id="path3" d="M107.863 59.029 C 107.840 59.775,107.771 59.992,107.542 60.052 C 107.268 60.123,107.269 60.129,107.547 60.147 C 107.938 60.173,108.033 59.880,107.957 58.895 L 107.893 58.083 107.863 59.029 M228.875 58.282 C 229.035 58.323,229.298 58.323,229.458 58.282 C 229.619 58.240,229.487 58.205,229.167 58.205 C 228.846 58.205,228.715 58.240,228.875 58.282 M350.206 65.285 L 350.167 71.654 348.708 71.709 L 347.250 71.765 348.714 71.799 C 350.527 71.842,350.346 72.604,350.292 65.166 L 350.246 58.917 350.206 65.285 M221.292 60.118 C 221.498 60.157,221.835 60.157,222.042 60.118 C 222.248 60.078,222.079 60.045,221.667 60.045 C 221.254 60.045,221.085 60.078,221.292 60.118 M275.296 60.789 C 275.688 60.824,276.288 60.824,276.629 60.788 C 276.971 60.752,276.650 60.723,275.917 60.724 C 275.183 60.724,274.904 60.754,275.296 60.789 M326.577 62.708 L 325.750 63.583 326.625 62.756 C 327.106 62.301,327.500 61.908,327.500 61.881 C 327.500 61.757,327.346 61.895,326.577 62.708 M191.991 62.625 L 191.417 63.250 192.042 62.676 C 192.385 62.360,192.667 62.078,192.667 62.051 C 192.667 61.923,192.526 62.043,191.991 62.625 M55.548 67.250 C 55.549 67.708,55.581 67.876,55.620 67.623 C 55.658 67.369,55.657 66.994,55.617 66.789 C 55.578 66.584,55.546 66.792,55.548 67.250 M239.042 67.083 C 239.044 67.450,239.078 67.580,239.118 67.373 C 239.158 67.166,239.156 66.866,239.115 66.706 C 239.073 66.547,239.040 66.717,239.042 67.083 M49.381 71.583 C 49.382 72.042,49.415 72.209,49.453 71.956 C 49.491 71.703,49.490 71.328,49.451 71.123 C 49.411 70.918,49.380 71.125,49.381 71.583 M74.708 71.789 C 75.144 71.824,75.856 71.824,76.292 71.789 C 76.727 71.755,76.371 71.727,75.500 71.727 C 74.629 71.727,74.273 71.755,74.708 71.789 M331.917 74.000 C 332.368 74.458,332.775 74.833,332.821 74.833 C 332.867 74.833,332.535 74.458,332.083 74.000 C 331.632 73.542,331.225 73.167,331.179 73.167 C 331.133 73.167,331.465 73.542,331.917 74.000 M326.000 79.250 C 326.311 79.571,326.603 79.833,326.649 79.833 C 326.695 79.833,326.478 79.571,326.167 79.250 C 325.856 78.929,325.564 78.667,325.518 78.667 C 325.472 78.667,325.689 78.929,326.000 79.250 M107.958 82.958 C 111.373 82.983,116.960 82.983,120.375 82.958 C 123.790 82.933,120.996 82.912,114.167 82.912 C 107.337 82.912,104.544 82.933,107.958 82.958 M167.576 96.417 C 167.576 99.992,167.598 101.430,167.625 99.614 C 167.652 97.797,167.652 94.872,167.625 93.114 C 167.598 91.355,167.576 92.842,167.576 96.417 M69.333 91.583 C 69.644 91.904,69.936 92.167,69.982 92.167 C 70.028 92.167,69.811 91.904,69.500 91.583 C 69.189 91.263,68.897 91.000,68.851 91.000 C 68.805 91.000,69.022 91.263,69.333 91.583 M48.880 94.123 C 49.318 94.157,49.993 94.157,50.380 94.122 C 50.767 94.087,50.408 94.059,49.583 94.059 C 48.758 94.060,48.442 94.088,48.880 94.123 M322.213 94.123 C 322.652 94.157,323.327 94.157,323.713 94.122 C 324.100 94.087,323.742 94.059,322.917 94.059 C 322.092 94.060,321.775 94.088,322.213 94.123 M72.883 99.167 C 72.883 99.671,72.915 99.877,72.953 99.625 C 72.991 99.373,72.991 98.960,72.953 98.708 C 72.915 98.456,72.883 98.662,72.883 99.167 M293.910 102.708 L 293.083 103.583 293.958 102.756 C 294.440 102.301,294.833 101.908,294.833 101.881 C 294.833 101.757,294.679 101.895,293.910 102.708 M240.167 104.719 C 240.167 104.748,240.410 104.991,240.708 105.260 L 241.250 105.750 240.760 105.208 C 240.304 104.703,240.167 104.590,240.167 104.719 M70.158 105.958 L 69.583 106.583 70.208 106.009 C 70.790 105.474,70.910 105.333,70.783 105.333 C 70.755 105.333,70.474 105.615,70.158 105.958 M232.500 107.885 C 232.500 107.914,232.744 108.158,233.042 108.427 L 233.583 108.917 233.094 108.375 C 232.638 107.870,232.500 107.757,232.500 107.885 M107.885 109.083 C 107.886 109.633,107.917 109.838,107.954 109.539 C 107.991 109.239,107.990 108.789,107.952 108.539 C 107.914 108.288,107.884 108.533,107.885 109.083 M161.385 109.083 C 161.386 109.633,161.417 109.838,161.454 109.539 C 161.491 109.239,161.490 108.789,161.452 108.539 C 161.414 108.288,161.384 108.533,161.385 109.083 " stroke="none" fill="#7c849c" fill-rule="evenodd"></path><path id="path4" d="M88.053 59.167 C 88.053 59.762,88.084 60.006,88.121 59.708 C 88.158 59.410,88.158 58.923,88.121 58.625 C 88.084 58.327,88.053 58.571,88.053 59.167 M140.218 59.083 C 140.219 59.633,140.250 59.838,140.287 59.539 C 140.325 59.239,140.324 58.789,140.286 58.539 C 140.248 58.288,140.217 58.533,140.218 59.083 M163.053 59.167 C 163.053 59.762,163.084 60.006,163.121 59.708 C 163.158 59.410,163.158 58.923,163.121 58.625 C 163.084 58.327,163.053 58.571,163.053 59.167 M197.053 59.167 C 197.053 59.762,197.084 60.006,197.121 59.708 C 197.158 59.410,197.158 58.923,197.121 58.625 C 197.084 58.327,197.053 58.571,197.053 59.167 M53.245 62.708 L 52.250 63.750 53.292 62.755 C 54.259 61.831,54.410 61.667,54.286 61.667 C 54.261 61.667,53.792 62.135,53.245 62.708 M226.667 62.052 C 226.667 62.081,226.910 62.325,227.208 62.594 L 227.750 63.083 227.260 62.542 C 226.804 62.037,226.667 61.923,226.667 62.052 M298.833 63.917 C 299.144 64.237,299.436 64.500,299.482 64.500 C 299.528 64.500,299.311 64.237,299.000 63.917 C 298.689 63.596,298.397 63.333,298.351 63.333 C 298.305 63.333,298.522 63.596,298.833 63.917 M184.217 64.833 C 184.217 65.337,184.248 65.544,184.286 65.292 C 184.324 65.040,184.324 64.627,184.286 64.375 C 184.248 64.123,184.217 64.329,184.217 64.833 M260.577 65.875 L 259.750 66.750 260.625 65.923 C 261.106 65.468,261.500 65.074,261.500 65.048 C 261.500 64.924,261.346 65.062,260.577 65.875 M94.247 84.083 C 94.247 94.533,94.267 98.833,94.292 93.638 C 94.316 88.443,94.316 79.893,94.292 74.638 C 94.267 69.383,94.247 73.633,94.247 84.083 M134.081 84.167 C 134.081 94.571,134.101 98.827,134.125 93.625 C 134.149 88.423,134.149 79.910,134.125 74.708 C 134.101 69.506,134.081 73.762,134.081 84.167 M328.883 67.167 C 328.883 67.671,328.915 67.877,328.953 67.625 C 328.991 67.373,328.991 66.960,328.953 66.708 C 328.915 66.456,328.883 66.662,328.883 67.167 M291.167 67.552 C 291.167 67.581,291.410 67.825,291.708 68.094 L 292.250 68.583 291.760 68.042 C 291.304 67.537,291.167 67.423,291.167 67.552 M230.721 72.917 C 230.722 73.558,230.752 73.800,230.788 73.455 C 230.824 73.109,230.824 72.584,230.787 72.288 C 230.750 71.992,230.721 72.275,230.721 72.917 M52.583 79.167 C 52.941 79.533,53.272 79.833,53.318 79.833 C 53.363 79.833,53.108 79.533,52.750 79.167 C 52.392 78.800,52.062 78.500,52.016 78.500 C 51.970 78.500,52.225 78.800,52.583 79.167 M107.958 80.458 C 111.373 80.483,116.960 80.483,120.375 80.458 C 123.790 80.433,120.996 80.412,114.167 80.412 C 107.337 80.412,104.544 80.433,107.958 80.458 M222.875 82.448 C 223.035 82.490,223.298 82.490,223.458 82.448 C 223.619 82.406,223.487 82.372,223.167 82.372 C 222.846 82.372,222.715 82.406,222.875 82.448 M251.727 86.667 C 251.727 87.537,251.755 87.894,251.789 87.458 C 251.824 87.023,251.824 86.310,251.789 85.875 C 251.755 85.440,251.727 85.796,251.727 86.667 M349.333 87.250 C 349.644 87.571,349.936 87.833,349.982 87.833 C 350.028 87.833,349.811 87.571,349.500 87.250 C 349.189 86.929,348.897 86.667,348.851 86.667 C 348.805 86.667,349.022 86.929,349.333 87.250 M175.075 96.167 C 175.075 99.513,175.098 100.881,175.125 99.208 C 175.152 97.535,175.152 94.798,175.125 93.125 C 175.098 91.452,175.075 92.821,175.075 96.167 M51.039 94.500 C 51.039 94.821,51.073 94.952,51.115 94.792 C 51.157 94.631,51.157 94.369,51.115 94.208 C 51.073 94.048,51.039 94.179,51.039 94.500 M321.410 101.417 C 321.410 105.450,321.432 107.076,321.458 105.030 C 321.485 102.985,321.485 99.685,321.458 97.697 C 321.432 95.709,321.410 97.383,321.410 101.417 M352.548 94.917 C 352.549 95.375,352.581 95.543,352.620 95.289 C 352.658 95.036,352.657 94.661,352.617 94.456 C 352.578 94.251,352.546 94.458,352.548 94.917 M324.375 95.417 C 324.377 95.783,324.411 95.914,324.451 95.706 C 324.491 95.499,324.490 95.199,324.448 95.040 C 324.406 94.880,324.374 95.050,324.375 95.417 M74.658 105.125 L 74.083 105.750 74.708 105.176 C 75.290 104.641,75.410 104.500,75.283 104.500 C 75.255 104.500,74.974 104.781,74.658 105.125 M281.621 107.620 C 281.917 107.657,282.442 107.658,282.788 107.622 C 283.134 107.586,282.892 107.555,282.250 107.555 C 281.608 107.554,281.325 107.583,281.621 107.620 M88.068 108.230 C 88.020 108.356,88.003 108.824,88.032 109.271 L 88.083 110.083 98.083 110.085 L 108.083 110.087 98.125 110.042 L 88.167 109.997 88.167 109.094 C 88.167 108.289,88.208 108.182,88.542 108.118 L 88.917 108.045 88.536 108.023 C 88.327 108.010,88.117 108.103,88.068 108.230 M139.792 108.109 C 140.125 108.181,140.167 108.291,140.167 109.094 L 140.167 109.997 130.208 110.042 L 120.250 110.087 130.250 110.085 L 140.250 110.083 140.250 109.083 C 140.250 108.135,140.228 108.082,139.833 108.056 C 139.466 108.032,139.461 108.038,139.792 108.109 M180.996 108.110 C 181.090 108.156,181.167 108.600,181.167 109.096 L 181.167 109.997 171.292 110.042 L 161.417 110.087 171.333 110.085 L 181.250 110.083 181.250 109.097 C 181.250 108.432,181.181 108.097,181.037 108.068 C 180.921 108.044,180.902 108.063,180.996 108.110 M221.496 108.110 C 221.590 108.156,221.667 108.600,221.667 109.096 L 221.667 109.997 211.792 110.042 L 201.917 110.087 211.833 110.085 L 221.750 110.083 221.750 109.097 C 221.750 108.432,221.681 108.097,221.537 108.068 C 221.421 108.044,221.402 108.063,221.496 108.110 M238.885 110.125 C 240.335 110.153,242.660 110.152,244.052 110.125 C 245.444 110.097,244.258 110.074,241.417 110.074 C 238.575 110.074,237.436 110.097,238.885 110.125 M59.463 111.289 C 59.855 111.324,60.455 111.324,60.796 111.288 C 61.137 111.252,60.817 111.223,60.083 111.224 C 59.350 111.224,59.071 111.254,59.463 111.289 M275.464 111.290 C 275.948 111.324,276.698 111.323,277.131 111.289 C 277.563 111.255,277.167 111.227,276.250 111.228 C 275.333 111.228,274.980 111.256,275.464 111.290 M332.625 111.289 C 333.015 111.324,333.652 111.324,334.042 111.289 C 334.431 111.254,334.112 111.225,333.333 111.225 C 332.554 111.225,332.235 111.254,332.625 111.289 M311.000 122.750 C 311.311 123.071,311.603 123.333,311.649 123.333 C 311.695 123.333,311.478 123.071,311.167 122.750 C 310.856 122.429,310.564 122.167,310.518 122.167 C 310.472 122.167,310.689 122.429,311.000 122.750 M282.324 125.958 L 281.750 126.583 282.375 126.009 C 282.957 125.474,283.077 125.333,282.949 125.333 C 282.922 125.333,282.640 125.615,282.324 125.958 M281.073 127.208 L 280.583 127.750 281.125 127.260 C 281.630 126.804,281.743 126.667,281.615 126.667 C 281.586 126.667,281.342 126.910,281.073 127.208 M285.161 131.458 L 284.250 132.417 285.208 131.506 C 286.099 130.659,286.243 130.500,286.119 130.500 C 286.093 130.500,285.662 130.931,285.161 131.458 M314.330 137.458 L 312.917 138.917 314.375 137.504 C 315.177 136.727,315.833 136.070,315.833 136.045 C 315.833 135.924,315.642 136.104,314.330 137.458 M262.995 137.458 L 261.917 138.583 263.042 137.505 C 263.660 136.912,264.167 136.405,264.167 136.380 C 264.167 136.257,263.997 136.413,262.995 137.458 M342.721 137.583 C 342.722 138.225,342.752 138.467,342.788 138.121 C 342.824 137.775,342.824 137.250,342.787 136.955 C 342.750 136.659,342.721 136.942,342.721 137.583 M266.167 137.417 C 265.762 137.829,265.468 138.167,265.514 138.167 C 265.560 138.167,265.928 137.829,266.333 137.417 C 266.738 137.004,267.032 136.667,266.986 136.667 C 266.940 136.667,266.572 137.004,266.167 137.417 M344.911 140.958 C 346.109 140.993,346.782 141.082,346.866 141.214 C 346.955 141.354,346.996 141.326,346.997 141.125 C 347.000 140.862,346.810 140.837,345.042 140.869 L 343.083 140.904 344.911 140.958 M342.718 144.083 C 342.719 144.633,342.750 144.838,342.787 144.539 C 342.825 144.239,342.824 143.789,342.786 143.539 C 342.748 143.288,342.717 143.533,342.718 144.083 M255.212 144.833 C 255.212 145.246,255.245 145.415,255.284 145.208 C 255.324 145.002,255.324 144.665,255.284 144.458 C 255.245 144.252,255.212 144.421,255.212 144.833 M331.409 145.042 L 330.750 145.750 331.458 145.091 C 332.117 144.478,332.243 144.333,332.117 144.333 C 332.090 144.333,331.771 144.652,331.409 145.042 M292.545 146.333 C 292.545 146.746,292.578 146.915,292.618 146.708 C 292.657 146.502,292.657 146.165,292.618 145.958 C 292.578 145.752,292.545 145.921,292.545 146.333 M288.042 147.083 C 288.044 147.450,288.078 147.580,288.118 147.373 C 288.158 147.166,288.156 146.866,288.115 146.706 C 288.073 146.547,288.040 146.717,288.042 147.083 M342.705 147.333 C 342.705 147.654,342.740 147.785,342.782 147.625 C 342.823 147.465,342.823 147.202,342.782 147.042 C 342.740 146.881,342.705 147.012,342.705 147.333 M281.991 149.792 L 281.417 150.417 282.042 149.842 C 282.623 149.308,282.743 149.167,282.616 149.167 C 282.588 149.167,282.307 149.448,281.991 149.792 M336.158 153.625 L 335.583 154.250 336.208 153.676 C 336.790 153.141,336.910 153.000,336.783 153.000 C 336.755 153.000,336.474 153.281,336.158 153.625 M329.167 155.385 C 329.167 155.414,329.410 155.658,329.708 155.927 L 330.250 156.417 329.760 155.875 C 329.304 155.370,329.167 155.257,329.167 155.385 M223.458 172.951 C 223.665 172.991,224.002 172.991,224.208 172.951 C 224.415 172.911,224.246 172.879,223.833 172.879 C 223.421 172.879,223.252 172.911,223.458 172.951 " stroke="none" fill="#a3a9b5" fill-rule="evenodd"></path></g></svg>